<?xml version="1.0" encoding="iso-8859-1"?>
<!-- Generator: Adobe Illustrator 16.0.0, SVG Export Plug-In . SVG Version: 6.00 Build 0)  -->
<!DOCTYPE svg PUBLIC "-//W3C//DTD SVG 1.1//EN" "http://www.w3.org/Graphics/SVG/1.1/DTD/svg11.dtd">
<svg version="1.1" id="Capa_1" xmlns="http://www.w3.org/2000/svg" xmlns:xlink="http://www.w3.org/1999/xlink" x="0px" y="0px"
	 width="397.031px" height="397.032px" viewBox="0 0 397.031 397.032" style="enable-background:new 0 0 397.031 397.032;"
	 xml:space="preserve">
<g>
	<g>
		<path d="M17.35,354.726c4.652,7.68,24.896,38.914,44.498,36.762c4.985-0.547,10.721-5.285,18.044-13.639
			c8.875-10.125,36.354-23.506,77.858-26.602c35.465-2.646,65.284-27.859,83.959-71.003c5.154-11.905,9.407-24.704,12.641-38.045
			c0.162-0.668,2.201-8.476,2.201-8.476l136.63-116.009c2.261-1.762,3.654-4.41,3.832-7.27c0.177-2.859-0.887-5.658-2.91-7.686
			L299.707,8.368c-2.025-2.027-4.826-3.086-7.688-2.912c-2.86,0.178-5.508,1.572-7.27,3.832L169.48,146.251
			c-18.207-1.625-37.025,0.867-55.951,7.43c-27.115,9.404-52.904,25.971-72.615,46.645c-21.877,22.946-35.631,49.937-39.777,78.05
			C-2.654,304.101,3.102,331.216,17.35,354.726z M128.768,195.122c-0.057-16.035,24.611-20.313,38.785-18.93
			c0.787,0.078,9.117,0.783,10.904,1.443l48.943,48.942c-0.327,1.716-1.974,7.584-2.207,8.558
			c-2.831,11.682-6.536,22.85-11.017,33.192c-9.924,22.925-28.273,49.5-58.658,53.004
			C103.844,327.289,129.051,274.862,128.768,195.122z"/>
	</g>
</g>
<g>
</g>
<g>
</g>
<g>
</g>
<g>
</g>
<g>
</g>
<g>
</g>
<g>
</g>
<g>
</g>
<g>
</g>
<g>
</g>
<g>
</g>
<g>
</g>
<g>
</g>
<g>
</g>
<g>
</g>
</svg>
