<?xml version="1.0" encoding="iso-8859-1"?>
<!-- Generator: Adobe Illustrator 19.0.0, SVG Export Plug-In . SVG Version: 6.00 Build 0)  -->
<svg version="1.1" id="Layer_1" xmlns="http://www.w3.org/2000/svg" xmlns:xlink="http://www.w3.org/1999/xlink" x="0px" y="0px"
	 viewBox="0 0 511.975 511.975" style="enable-background:new 0 0 511.975 511.975;" xml:space="preserve">
<g>
	<g>
		<g>
			<path d="M286.252,491.975h-45c-5.523,0-10,4.477-10,10s4.477,10,10,10h45c5.523,0,10-4.477,10-10
				S291.774,491.975,286.252,491.975z"/>
			<path d="M196.252,491.975h-45c-5.523,0-10,4.477-10,10s4.477,10,10,10h45c5.523,0,10-4.477,10-10
				S201.774,491.975,196.252,491.975z"/>
			<path d="M361.01,476.734c-5.523,0-10,4.477-10,10v5.241h-19.759c-5.523,0-10,4.477-10,10s4.477,10,10,10h29.759
				c5.523,0,10-4.477,10-10v-15.241C371.01,481.211,366.533,476.734,361.01,476.734z"/>
			<path d="M135.945,327.281c-5.523,0-10,4.477-10,10v45c0,5.523,4.477,10,10,10s10-4.477,10-10v-45
				C145.945,331.758,141.468,327.281,135.945,327.281z"/>
			<path d="M145.945,286.91h19.629c5.523,0,10-4.477,10-10s-4.477-10-10-10h-29.629c-5.523,0-10,4.477-10,10v15.371
				c0,5.523,4.477,10,10,10s10-4.477,10-10V286.91z"/>
			<path d="M145.945,472.281v-45c0-5.523-4.477-10-10-10s-10,4.477-10,10v45c0,5.523,4.477,10,10,10
				S145.945,477.804,145.945,472.281z"/>
			<path d="M480.639,201.357c-5.523,0-10,4.477-10,10v49c0,5.523,4.477,10,10,10s10-4.477,10-10v-49
				C490.639,205.834,486.162,201.357,480.639,201.357z"/>
			<path d="M436.715,167.281h35.218c1.718,3.031,4.973,5.076,8.706,5.076c5.523,0,10-4.477,10-10v-5.076c0-5.523-4.477-10-10-10
				h-43.924c-5.523,0-10,4.477-10,10S431.192,167.281,436.715,167.281z"/>
			<path d="M480.639,299.357c-5.523,0-10,4.477-10,10v49c0,5.523,4.477,10,10,10s10-4.477,10-10v-49
				C490.639,303.834,486.162,299.357,480.639,299.357z"/>
			<path d="M455.628,372.346h-49c-5.523,0-10,4.477-10,10s4.477,10,10,10h49c5.523,0,10-4.477,10-10
				S461.151,372.346,455.628,372.346z"/>
			<path d="M387.715,147.281h-49c-5.523,0-10,4.477-10,10s4.477,10,10,10h49c5.523,0,10-4.477,10-10
				S393.238,147.281,387.715,147.281z"/>
			<path d="M361.01,266.91h-44.946h-49h-1.49V239.4c0-5.523-4.477-10-10-10s-10,4.477-10,10v27.51h-35c-5.523,0-10,4.477-10,10
				s4.477,10,10,10h35v35.26v45v15.176c0,5.523,4.477,10,10,10h29.824h65.571l0.041,4.388v45c0,5.523,4.477,10,10,10s10-4.477,10-10
				v-45v-17.77v-49v-49v-4.054C371.01,271.387,366.533,266.91,361.01,266.91z M351.01,329.964v42.382h-20.612h-45v0h-19.824v-5.176
				v-45v-35.26h1.49h49h34.946V329.964z"/>
			<path d="M117.943,92.423l-26.359,26.359c-3.905,3.905-3.905,10.237,0,14.143c1.953,1.953,4.512,2.929,7.071,2.929
				c2.559,0,5.119-0.976,7.071-2.929l26.359-26.359c3.906-3.906,3.906-10.238,0.001-14.143
				C128.181,88.518,121.849,88.518,117.943,92.423z"/>
			<path d="M213.42,114.658c4.996,1.963,9.463,4.892,13.276,8.705c15.189,15.19,15.189,39.905,0,55.094
				c-3.812,3.813-8.279,6.743-13.276,8.706c-3.827,1.503-6.343,5.196-6.343,9.307c0,4.112,2.516,7.805,6.343,9.308
				c7.008,2.753,14.323,4.091,21.574,4.091c15.357,0,30.431-6.001,41.699-17.27c22.987-22.987,22.987-60.39,0-83.378
				c-16.59-16.589-41.427-21.761-63.273-13.178c-3.826,1.504-6.343,5.197-6.343,9.308
				C207.077,109.462,209.593,113.155,213.42,114.658z M244.391,113.103c6.737,1.672,13.043,5.145,18.159,10.262
				c15.189,15.189,15.189,39.904,0,55.093c-5.117,5.117-11.421,8.59-18.159,10.262C262.639,166.914,262.639,134.909,244.391,113.103
				z"/>
			<path d="M223.456,157.605c1.875-1.875,2.929-4.419,2.929-7.071s-1.054-5.195-2.929-7.071l-59.538-59.538
				c14.249-20.897,12.124-49.693-6.401-68.219c-20.942-20.941-55.017-20.942-75.96,0c-18.525,18.526-20.65,47.321-6.401,68.219
				l-31.143,31.143c-30.236,30.236-30.236,79.434,0,109.671l1.319,1.319c14.647,14.647,34.122,22.713,54.836,22.713
				c20.714,0,40.188-8.066,54.835-22.713L223.456,157.605z M95.699,29.849c13.145-13.144,34.532-13.144,47.676,0
				c10.683,10.683,12.683,26.812,6.001,39.534l-22.767-22.767c-3.905-3.904-10.237-3.904-14.142,0L89.699,69.383
				C83.016,56.66,85.016,40.532,95.699,29.849z M100.167,228.771c-15.372,0-29.824-5.986-40.693-16.856l-1.319-1.319
				c-22.438-22.438-22.438-58.948,0-81.386l61.382-61.382l23.833,23.833c0.002,0.002,0.003,0.003,0.005,0.005
				c0.002,0.002,0.003,0.003,0.005,0.005l58.863,58.863l-61.383,61.382C129.991,222.786,115.539,228.771,100.167,228.771z"/>
			<path d="M285.113,350.918c0,5.523,4.477,10,10,10h32.442c5.523,0,10-4.477,10-10s-4.477-10-10-10h-32.442
				C289.59,340.918,285.113,345.395,285.113,350.918z"/>
			<path d="M78.18,145.409c-4.877-2.591-10.931-0.738-13.523,4.139c-4.325,8.14-6.813,17.333-7.195,26.583
				c-0.228,5.518,4.061,10.176,9.579,10.404c0.141,0.005,0.28,0.008,0.42,0.008c5.332,0,9.762-4.21,9.984-9.587
				c0.259-6.278,1.945-12.511,4.874-18.024C84.911,154.055,83.058,148.001,78.18,145.409z"/>
		</g>
	</g>
</g>
<g>
</g>
<g>
</g>
<g>
</g>
<g>
</g>
<g>
</g>
<g>
</g>
<g>
</g>
<g>
</g>
<g>
</g>
<g>
</g>
<g>
</g>
<g>
</g>
<g>
</g>
<g>
</g>
<g>
</g>
</svg>
